<svg width="26" height="26" viewBox="0 0 26 26" fill="none" xmlns="http://www.w3.org/2000/svg">
<circle cx="13" cy="13" r="13" fill="#266CC0"/>
<circle cx="13" cy="13" r="10" fill="white"/>
<path d="M7.90796 13.5729C8.96264 13.6801 10.0495 13.6639 11.0909 13.5257C12.1323 13.3874 13.1025 13.1305 13.9324 12.7731C14.7622 12.4158 15.4311 11.967 15.8914 11.4587C16.3517 10.9503 16.592 10.395 16.5951 9.83245C16.5982 9.26987 16.364 8.71387 15.9094 8.20415C15.4547 7.69443 14.7907 7.24357 13.9648 6.88376C13.1389 6.52395 12.1715 6.26407 11.1317 6.12267C10.0918 5.98127 9.00519 5.96185 7.94935 6.06578L8.74593 8.2848C9.17793 8.24228 9.62253 8.25023 10.048 8.30808C10.4734 8.36593 10.8693 8.47226 11.2072 8.61948C11.5451 8.76669 11.8167 8.95116 12.0028 9.15972C12.1888 9.36827 12.2846 9.59576 12.2833 9.82594C12.2821 10.0561 12.1838 10.2833 11.9954 10.4913C11.8071 10.6993 11.5334 10.8829 11.1939 11.0291C10.8544 11.1753 10.4574 11.2804 10.0313 11.337C9.6052 11.3936 9.16052 11.4002 8.729 11.3563L7.90796 13.5729Z" fill="#266CC0"/>
<rect x="6.37854" y="6" width="2.91902" height="14.4643" fill="#266CC0"/>
<path d="M8.25191 13L10.7519 12L16 19L15 21.3569L11.5 16.8569L8.25191 13Z" fill="#266CC0"/>
<path d="M13 18.5L21.4895 7.34175L22.746 7.89781L15 21L13 18.5Z" fill="#266CC0"/>
</svg>
